HIERARCHY
ROOT Hips
{
	OFFSET -14.64140 90.27770 -84.91600
	CHANNELS 6 Xposition Yposition Zposition Zrotation Xrotation Yrotation
	JOINT Spine
	{
		OFFSET 0.00000 13.20850 -1.60436
		CHANNELS 3 Zrotation Xrotation Yrotation
		JOINT Spine1
		{
			OFFSET 0.00000 8.61716 0.00000
			CHANNELS 3 Zrotation Xrotation Yrotation
			JOINT Spine2
			{
				OFFSET 0.00000 8.61717 0.00000
				CHANNELS 3 Zrotation Xrotation Yrotation
				JOINT Spine3
				{
					OFFSET 0.00000 8.61717 0.00000
					CHANNELS 3 Zrotation Xrotation Yrotation
					JOINT Neck
					{
						OFFSET 0.00000 11.07920 1.10792
						CHANNELS 3 Zrotation Xrotation Yrotation
						JOINT Neck1
						{
							OFFSET 0.00000 7.08032 0.00000
							CHANNELS 3 Zrotation Xrotation Yrotation
							JOINT Head
							{
								OFFSET 0.00000 7.08031 0.00000
								CHANNELS 3 Zrotation Xrotation Yrotation
								End site
								{
									OFFSET 0.00000 0.00000 0.00000
								}
							}
						}
					}
					JOINT RightShoulder
					{
						OFFSET -0.01000 7.91373 5.19711
						CHANNELS 3 Zrotation Xrotation Yrotation
						JOINT RightArm
						{
							OFFSET -18.41580 0.00000 0.00000
							CHANNELS 3 Zrotation Xrotation Yrotation
							JOINT RightForeArm
							{
								OFFSET -29.11090 0.00000 0.00000
								CHANNELS 3 Zrotation Xrotation Yrotation
								JOINT RightHand
								{
									OFFSET -24.65040 0.00000 0.00000
									CHANNELS 3 Zrotation Xrotation Yrotation
									JOINT RightHandThumb1
									{
										OFFSET -5.35114 -0.85590 3.97906
										CHANNELS 3 Zrotation Xrotation Yrotation
										JOINT RightHandThumb2
										{
											OFFSET -4.52789 0.00000 0.00000
											CHANNELS 3 Zrotation Xrotation Yrotation
											JOINT RightHandThumb3
											{
												OFFSET -2.46976 0.00000 0.00000
												CHANNELS 3 Zrotation Xrotation Yrotation
												End site
												{
													OFFSET 0.00000 0.00000 0.00000
												}
											}
										}
									}
									JOINT RightHandIndex1
									{
										OFFSET -14.26970 0.00000 2.88139
										CHANNELS 3 Zrotation Xrotation Yrotation
										JOINT RightHandIndex2
										{
											OFFSET -5.48836 0.00000 0.00000
											CHANNELS 3 Zrotation Xrotation Yrotation
											JOINT RightHandIndex3
											{
												OFFSET -3.01859 0.00000 0.00000
												CHANNELS 3 Zrotation Xrotation Yrotation
												End site
												{
													OFFSET 0.00000 0.00000 0.00000
												}
											}
										}
									}
									JOINT RightHandMiddle1
									{
										OFFSET -14.26970 0.00000 -0.09147
										CHANNELS 3 Zrotation Xrotation Yrotation
										JOINT RightHandMiddle2
										{
											OFFSET -6.17441 0.00000 0.00000
											CHANNELS 3 Zrotation Xrotation Yrotation
											JOINT RightHandMiddle3
											{
												OFFSET -3.56743 0.00000 0.00000
												CHANNELS 3 Zrotation Xrotation Yrotation
												End site
												{
													OFFSET 0.00000 0.00000 0.00000
												}
											}
										}
									}
									JOINT RightHandRing1
									{
										OFFSET -12.69180 0.00000 -3.06433
										CHANNELS 3 Zrotation Xrotation Yrotation
										JOINT RightHandRing2
										{
											OFFSET -5.62556 0.00000 0.00000
											CHANNELS 3 Zrotation Xrotation Yrotation
											JOINT RightHandRing3
											{
												OFFSET -3.56744 0.00000 0.00000
												CHANNELS 3 Zrotation Xrotation Yrotation
												End site
												{
													OFFSET 0.00000 0.00000 0.00000
												}
											}
										}
									}
									JOINT RightHandPinky1
									{
										OFFSET -11.11390 0.00000 -6.03719
										CHANNELS 3 Zrotation Xrotation Yrotation
										JOINT RightHandPinky2
										{
											OFFSET -4.52789 0.00000 0.00000
											CHANNELS 3 Zrotation Xrotation Yrotation
											JOINT RightHandPinky3
											{
												OFFSET -2.46976 0.00000 0.00000
												CHANNELS 3 Zrotation Xrotation Yrotation
												End site
												{
													OFFSET 0.00000 0.00000 0.00000
												}
											}
										}
									}
								}
							}
						}
					}
					JOINT LeftShoulder
					{
						OFFSET 0.01000 7.91373 5.19711
						CHANNELS 3 Zrotation Xrotation Yrotation
						JOINT LeftArm
						{
							OFFSET 18.41580 0.00000 0.00000
							CHANNELS 3 Zrotation Xrotation Yrotation
							JOINT LeftForeArm
							{
								OFFSET 29.11090 0.00000 0.00000
								CHANNELS 3 Zrotation Xrotation Yrotation
								JOINT LeftHand
								{
									OFFSET 24.65040 0.00000 0.00000
									CHANNELS 3 Zrotation Xrotation Yrotation
									JOINT LeftHandThumb1
									{
										OFFSET 5.35114 -0.85590 3.97906
										CHANNELS 3 Zrotation Xrotation Yrotation
										JOINT LeftHandThumb2
										{
											OFFSET 4.52789 0.00000 0.00000
											CHANNELS 3 Zrotation Xrotation Yrotation
											JOINT LeftHandThumb3
											{
												OFFSET 2.46977 0.00000 0.00000
												CHANNELS 3 Zrotation Xrotation Yrotation
												End site
												{
													OFFSET 0.00000 0.00000 0.00000
												}
											}
										}
									}
									JOINT LeftHandIndex1
									{
										OFFSET 14.26970 0.00000 2.88139
										CHANNELS 3 Zrotation Xrotation Yrotation
										JOINT LeftHandIndex2
										{
											OFFSET 5.48836 0.00000 0.00000
											CHANNELS 3 Zrotation Xrotation Yrotation
											JOINT LeftHandIndex3
											{
												OFFSET 3.01859 0.00000 0.00000
												CHANNELS 3 Zrotation Xrotation Yrotation
												End site
												{
													OFFSET 0.00000 0.00000 0.00000
												}
											}
										}
									}
									JOINT LeftHandMiddle1
									{
										OFFSET 14.26970 0.00000 -0.09147
										CHANNELS 3 Zrotation Xrotation Yrotation
										JOINT LeftHandMiddle2
										{
											OFFSET 6.17440 0.00000 0.00000
											CHANNELS 3 Zrotation Xrotation Yrotation
											JOINT LeftHandMiddle3
											{
												OFFSET 3.56744 0.00000 0.00000
												CHANNELS 3 Zrotation Xrotation Yrotation
												End site
												{
													OFFSET 0.00000 0.00000 0.00000
												}
											}
										}
									}
									JOINT LeftHandRing1
									{
										OFFSET 12.69180 0.00000 -3.06433
										CHANNELS 3 Zrotation Xrotation Yrotation
										JOINT LeftHandRing2
										{
											OFFSET 5.62556 0.00000 0.00000
											CHANNELS 3 Zrotation Xrotation Yrotation
											JOINT LeftHandRing3
											{
												OFFSET 3.56744 0.00000 0.00000
												CHANNELS 3 Zrotation Xrotation Yrotation
												End site
												{
													OFFSET 0.00000 0.00000 0.00000
												}
											}
										}
									}
									JOINT LeftHandPinky1
									{
										OFFSET 11.11390 0.00000 -6.03719
										CHANNELS 3 Zrotation Xrotation Yrotation
										JOINT LeftHandPinky2
										{
											OFFSET 4.52789 0.00000 0.00000
											CHANNELS 3 Zrotation Xrotation Yrotation
											JOINT LeftHandPinky3
											{
												OFFSET 2.46976 0.00000 0.00000
												CHANNELS 3 Zrotation Xrotation Yrotation
												End site
												{
													OFFSET 0.00000 0.00000 0.00000
												}
											}
										}
									}
								}
							}
						}
					}
					JOINT pCube4
					{
						OFFSET 0.00000 10.91090 1.10792
						CHANNELS 3 Zrotation Xrotation Yrotation
						End site
						{
							OFFSET 0.00000 0.00000 0.00000
						}
					}
				}
			}
		}
	}
	JOINT RightUpLeg
	{
		OFFSET -9.98441 0.00000 0.00000
		CHANNELS 3 Zrotation Xrotation Yrotation
		JOINT RightLeg
		{
			OFFSET 0.00000 -42.11790 0.00000
			CHANNELS 3 Zrotation Xrotation Yrotation
			JOINT RightFoot
			{
				OFFSET 0.00000 -45.00020 -0.00001
				CHANNELS 3 Zrotation Xrotation Yrotation
				JOINT RightForeFoot
				{
					OFFSET 0.00000 -3.74820 0.00000
					CHANNELS 3 Zrotation Xrotation Yrotation
					JOINT RightToeBase
					{
						OFFSET 0.00000 0.06325 14.43120
						CHANNELS 3 Zrotation Xrotation Yrotation
						End site
						{
							OFFSET 0.00000 0.00000 0.00000
						}
					}
				}
			}
		}
	}
	JOINT LeftUpLeg
	{
		OFFSET 9.98441 0.00000 0.00000
		CHANNELS 3 Zrotation Xrotation Yrotation
		JOINT LeftLeg
		{
			OFFSET 0.00000 -42.11800 0.00000
			CHANNELS 3 Zrotation Xrotation Yrotation
			JOINT LeftFoot
			{
				OFFSET 0.00000 -45.00070 0.00000
				CHANNELS 3 Zrotation Xrotation Yrotation
				JOINT LeftForeFoot
				{
					OFFSET 0.00000 -3.74824 0.00000
					CHANNELS 3 Zrotation Xrotation Yrotation
					JOINT LeftToeBase
					{
						OFFSET 0.00000 0.06325 14.43110
						CHANNELS 3 Zrotation Xrotation Yrotation
						End site
						{
							OFFSET 0.00000 0.00000 0.00000
						}
					}
				}
			}
		}
	}
}
MOTION
Frames: 4
Frame Time: 0.050000
-0.045377643937664074 -0.015262294892242255 0.04034987950356415 0.014589038059614857 -0.03773815377985124 0.0048234431265455424 2.8439583088712848 3.755336217289024 -1.8155193093451638 -0.6941730522216069 3.526999862484352 0.43791461545210886 -0.7804519221424758 -1.066309411756764 1.7069446230783414 -0.8942478104191435 -0.708923405713686 -0.24955255943024185 0.3548807153323845 11.91570430086102 -1.9874696628887645 0.1921375713950586 -0.8842028400501882 -6.12891457513665 0.985214022893896 -17.155049522604553 -0.5071616432798023 -9.656698027806625 3.5651086323910484 -15.711195574505158 76.27397279351109 -9.040555527517355 23.402478574954742 22.17359528601676 4.857439917202814 80.13788438964853 17.158997162389493 -0.4346541351721254 -5.917695081777976 4.538741948478785 -0.14350822266395283 -1.6065333301073468 0.04997823004888684 0.0047077753985283995 -56.27031036584936 0.028019468607160515 -0.027290638732636253 -56.26589782171365 -38.78349308379415 -0.023021626642066372 -0.023490084200178 0.041999795755357325 -0.004333049670027248 0.040927872288025136 -0.009712282737396785 -0.03425060375232224 0.022046594804316477 -36.708506933610664 -0.014863624021471934 0.009440765746226865 -0.014941402658719672 -0.018281802029064514 -0.024059892100738844 -0.03432971086766088 -0.03326448131350233 -0.015063604594115858 -19.75771785678776 -0.02371425942721669 -0.03477379282663268 -0.004967660009654708 0.002860975533820147 0.0040077249035131365 0.009577129831134868 -0.008112215202795356 -0.043886936993873485 24.040718750847688 0.014206309685121831 0.009468751380917288 28.842438438040727 -0.011553056564025957 -0.01450430020947486 28.85672858651827 0.0013425501996260512 0.008003725889181685 7.775177745438088 2.069096760348284 13.73413574909248 -74.9191138101767 7.287100787995679 -14.102139916125758 -11.084986290354843 12.666068344033185 -54.56529386027882 -21.28500678412095 2.3103198264043407 -0.691747319196135 -0.49054057417169783 0.08992607022191161 -8.152630313895768 -0.02216254427957819 -0.026306087275309958 44.5434639676412 -0.011492369893753076 0.038373968398734415 44.56940572877751 12.508459089773407 -0.0053804766298728894 -0.028026426859341164 -0.03461461272550045 -0.008451117097250218 0.01646508677758061 -0.014381120338080344 -0.03432732806069115 -0.011856482682034196 11.090238092048239 -0.001399849621973749 0.04319172684449415 -0.04894061519380098 0.016541895426873843 0.02803967761509118 0.004495424944460363 0.03648616451901589 0.008370841157440922 4.741545775107841 -0.016540010190790728 0.021421582048568037 0.00931825606898779 -0.042285443827717165 -0.042679815240378546 -0.0032297970233955355 0.02017819934598409 0.021737340454852427 -5.626875228841051 0.009860280451633223 -0.00035501490797642545 -6.7284995661768 0.020515503072367058 -0.023520985816536756 -6.762690750445521 0.028465175220827973 -0.02942934664793917 0.027185432036721205 -0.02428324928765153 0.04063453705218597 8.030355532357195 3.4900903902524436 -19.190858994018605 -0.04358784060862671 10.367500796769917 0.006190266320408481 -5.615064195959395 -15.678887495516982 3.1626068561351417 -0.0113714891988055 0.036421164673600216 -1.6371141753992445e-05 -0.0232319525394826 4.6840048005647885 -0.013064680413765703 12.418730703954722 -8.230470640645997 6.872512206488991 0.011345329376592765 46.37418451179617 0.022493819555331862 -4.330449364800207 -14.74224501553063 -3.797171023433433 0.018183595914618274 0.03498073254827289 -0.00846534649398814 0.02043878630557743 -10.710302053375887 0.012166323520836195 
0.035674870174213086 0.04041529772187203 0.04103447339644031 -0.016471669880784887 -0.018286829023588108 -0.02717405265906528 2.6086643747433484 3.7117917227794863 -1.7067751921030538 -0.6770260981370131 3.5146394518669464 0.39867906067535386 -0.7716678104543355 -1.155648232046894 1.8363828110523757 -0.8582251884737864 -0.7049221611623626 -0.21030488318828636 0.46081550701261415 12.093058346373814 -2.2105792366352035 0.1591252585142886 -0.8845809793402846 -6.960652277654795 0.9868572315678922 -16.915488349707115 -0.606212176792509 -9.769879179559503 3.5395618158104614 -15.573496527037525 75.39327898222236 -10.575760064445427 25.855900440889812 22.158690280222597 4.956869618914919 80.90890967579982 16.66875934400738 -0.4098801431212741 -5.501101725364855 4.547956667149157 -0.12986420996830128 -1.5944630093697665 0.008437328500856666 0.028849903741339663 -56.20487675777531 -0.0019441278806256043 0.018899420726030236 -56.24554595649378 -38.749242206372664 -0.02519015536547999 0.02566133852530906 0.03666922799260846 0.039870021166265 -0.03918968102690151 0.009555742452719777 -0.00793011202485201 -0.006024358501215375 -36.674533588895784 -0.001538200494797413 0.0005469114666803422 -0.020003877749542057 0.028343555058912673 -0.03184413936324604 -0.0292567814886354 0.019347298899760727 -0.04523034736646663 -19.778767838674007 -0.018103600983700868 -0.04264906294497122 -0.024944989559068532 0.048666688225812604 -0.014871431528678902 0.032581766961058134 -0.03067023978875135 0.034156528178857594 24.06108841164654 -0.0046230268849023395 0.03327037050619955 28.85024880713538 -0.02359414367554288 0.04110294368353835 28.86453803180662 -0.0005330432266414581 0.03853001815309832 7.454741301608857 2.0121462359474442 13.775574456668679 -75.09742109892626 5.919531969706784 -14.234930083505223 -8.766151826126807 14.564264237525348 -52.59415612850406 -20.773953211965953 4.625360311417887 -2.123208587185248 -0.4640627203508597 0.10237751644433976 -8.162150476719638 0.0013450365519778362 -0.024672412994116193 44.52739920669993 0.011062868882117195 -0.006252068371201011 44.56468162944823 12.485053463024931 -0.013765879891943425 -0.047054265243353016 0.01595599057307297 -0.0011680706901642927 0.005184123629755032 0.007313859815872501 0.038283077759817964 -0.014367096000568713 11.148284857235032 -0.031211431674330672 0.021695884114343002 0.045330803778412636 0.026297425093097748 -0.01609623277835055 -0.04905994128525746 -0.045278553033892506 0.017876791300922838 4.782997326732765 -0.045067307261820226 0.018779335332034495 0.048667552251708004 -0.04827782761998895 -0.009498117094851507 0.019240866144720658 -0.0474261071835311 0.013559093741512858 -5.566515761123541 -0.01313022424983546 -0.01600340727599983 -6.712651681795714 -0.02418788629769205 -0.020817365940076913 -6.689162786276458 -0.04994955237885891 0.03531976889112332 0.01917956377151278 0.03813906862490351 0.04143618101265247 8.058880275869463 3.4840839819415694 -19.20569963600274 0.01862405134993887 10.399483042781572 -0.01620308863758385 -5.5883425749255915 -15.676303630441346 3.1603663229002295 -0.019879674181690295 -0.005053245692593535 -0.03393686759308523 0.016774567928019735 4.739712292099125 0.045395119942356864 12.443059688781071 -8.209161298620753 6.90128440451304 -0.03771506276744025 46.369004456242564 -0.029872560842368265 -4.358356948131101 -14.746062297390086 -3.8605076170281856 -0.03871979186435588 -0.02999291378069914 0.04372086610700684 -0.0018433442234877192 -10.752696819476329 0.03270789906366301 
0.022048580602825798 0.02276610774192775 0.0039389387130865944 -0.015359759010727623 -0.03867570302385663 -0.02814483886456505 2.3276402994249987 3.6471167647405087 -1.704766201507115 -0.7378611600186102 3.582733659581534 0.4339911234647792 -0.866589630356649 -1.1378191288757324 2.0192813470668707 -0.9288861739000165 -0.7408831547101732 -0.2101311178699322 0.5372829577662154 12.194396340243808 -2.392139803758918 0.1445665576428541 -0.8004054659328932 -7.43951655637852 1.0342440270036586 -16.807615024986436 -0.6367502191455808 -9.925883601212352 3.632337404088254 -15.44066461457329 74.31515881914041 -12.414679497393399 28.381116358250203 21.548865333825262 4.833212004557077 81.14815208799602 16.396391427625687 -0.42300040386344223 -5.138775996406732 4.576287563043698 -0.08355731520505033 -1.6275555106427289 -0.03767548934488907 0.01330428354130137 -56.197543770881445 6.629192359182298e-05 0.04457826264253094 -56.213873781056115 -38.794865975682356 -0.005540667034697294 -0.045188381615748834 -0.047363104906113326 -0.013663627979626733 0.01285095887573057 -0.012024697265720675 0.01474341245465812 -0.008453976778235655 -36.72106761729815 0.017621652231213893 0.03858349276411421 0.012996248390832625 0.0005294225157996465 -0.03085160932817844 -0.026616125599167016 0.008917119538008368 0.042609645412973685 -19.773609215607227 -0.040735480498760634 0.031920259250748234 -0.021929436019401238 0.006177364631417623 -0.00856851452250424 0.037770563310312325 0.0034274642867852105 -4.183801359018776e-05 24.049142570134524 0.00783983036072844 -0.0009007313994920041 28.88786815714568 -0.019808217959309662 0.011999461842359069 28.855663084532658 0.027171990776758356 -0.02339771405295198 7.144128104763282 1.9183960332769006 13.785449910461654 -75.20917954696863 4.303648316823353 -14.102610243162301 -5.316704271610012 16.109445836514208 -49.3551087706933 -20.628762819815673 6.861114031585491 -3.3930604387726717 -0.48056122126005874 0.08823177031302368 -8.10518243467649 -0.046439547979441095 -0.038712099592939815 44.52742431119633 -0.012805102284168446 0.0031852046456048912 44.52226704975432 12.487850277214859 -0.01385238601116289 -0.03502864151776727 -0.03463383741239089 0.0008843906225362503 0.04157573030803647 0.04036708924316594 -0.0017595257890130624 0.04595664179472945 11.096186249863395 0.03840929051688136 -0.03560678486065174 0.0030024779620378543 -0.012657095954658849 -0.007572109349347474 0.005011909417920266 -0.0412672803029453 0.0013201326314844983 4.788063514958612 -0.03916191056508144 -0.049690530864482066 -0.025224746300067106 0.03756898720226371 0.01988546227876117 0.024149995504128927 0.0322788794631649 -0.026175895161142857 -5.616503099836908 -0.028333221274772828 0.003470126792615415 -6.755628506965149 -0.02669204658859791 0.007818678621240045 -6.746125575701535 0.03441541493154139 -0.004063667025405874 0.007572745663733521 0.03826360291257337 -0.013101625992241262 8.066807252009939 3.493259520024418 -19.19168408542469 -0.02857671813574509 10.390200774731502 0.028517598148321728 -5.575565682083484 -15.618358636733404 3.1835211872391445 -0.00045944686332049644 0.03617872326913129 0.04428732384220979 -0.023427247489923433 4.6751256017902545 -0.044678932021937214 12.461620569752814 -8.246294659550577 6.856672433069838 -0.03507123432322312 46.38122273629222 0.007629652890824655 -4.3182194695894545 -14.778056001461538 -3.8178321144259777 0.0235015071080416 0.04395212942680987 0.00963961842557992 0.0007403991289515069 -10.750817598732095 0.04319829961574791 
-0.02789281964502276 0.01755393557733598 -0.03964816488984825 -0.023959204746908117 0.027170570600271084 0.03786085333618498 2.05534754206185 3.5344431837463035 -1.5939812319086022 -0.6976380692208249 3.5961292350725227 0.3817561716678825 -0.8690600001485177 -1.2033668192239244 2.1115269836884982 -0.9306879295261825 -0.7695486006888079 -0.22193265857177663 0.5952143589845329 12.227869474784262 -2.3507645817391754 0.10717665952902254 -0.7298625235273968 -7.435193331153556 0.9948822727675468 -16.607415685769137 -0.5814046179169498 -9.711072551739269 3.5886089288609107 -15.423719238757359 73.24286410254052 -13.424206880757835 29.537545023167233 20.462067849476586 4.843445568024896 81.84473062253157 16.596613845651873 -0.43340397948377885 -4.874938200181713 4.508679001042431 -0.1641790260227469 -1.6214450254605524 -0.029892269283402963 0.041686926566438236 -56.267962832689115 -0.03820037280659599 0.0020718599647582365 -56.268329714819316 -38.78419016693651 0.03966924008071279 -0.0013378435050608712 -0.01947298811553027 -0.015213246866989221 0.011030999316482465 0.025980436497632497 0.014200187307305007 0.018923041488875393 -36.68153834473308 0.0050671720542823885 -0.02386230613061314 0.025794064817669708 0.023928899064438264 -0.029611336770425316 0.01593873110325807 0.0007944426971771794 -0.008365782741660997 -19.736443865233582 -0.03840492575990066 0.020040254230256686 -0.017433805661938567 0.012766793059328761 0.046875815216597824 0.00527303458976774 -0.01897910225270781 -0.039476811630717194 24.083994534068484 -0.0009908324702623077 0.04355097992932728 28.8565538855902 0.012200644002308017 0.043629790492108626 28.819012576666765 -0.032012728228016964 0.01058212958903385 6.749267445677695 1.8576932555986667 13.835764658442761 -75.41067372206777 3.513794204829519 -13.423608852368762 -1.875429717217129 17.118512194944607 -46.44114589945021 -20.52026805880713 8.846346224414996 -4.605809012074314 -0.4864070408164053 0.10766886598955941 -8.165406350780556 -0.026036032985161345 -0.003484752217257826 44.56977460063519 -0.028111637786224882 0.028997081461104357 44.57344316800668 12.48395085741079 0.03995620541514711 0.04216721081238993 0.002659699895867396 0.02931822933142785 0.04356528570715687 -0.013088872804045578 -0.0227398080018778 0.04665455186654453 11.137702867011667 -0.029659300777500557 -0.03447465103644033 -0.005855082639139912 0.023974152721945557 0.038790804335387 0.022164479848568983 -0.035566478661420535 -0.04169005112821583 4.8095377556481935 0.04532368107033106 -0.015738317424333934 0.004766639106465049 -0.018170660350943158 0.03707883255933312 -0.003777323257938366 0.0307290850082931 -0.0017466905423807603 -5.5707832395684616 0.02331825384976984 -0.010948220853830423 -6.735713740173712 0.011819913166916926 0.019368339949186127 -6.738386180862852 0.03961519448744999 -0.03525186068478663 -0.03659798984316283 -0.019438015817876787 -0.00411802423785468 8.018208169056676 3.451414188556107 -19.19096527940149 0.012798614161405887 10.349537875318239 -0.01735089569229437 -5.581948711330852 -15.665805542023847 3.2041044691842733 -0.02172148581147232 0.030890004167656783 -0.04073459841028019 -0.02119489364817575 4.691787074828917 0.004042353047864608 12.508726727408341 -8.191099972582041 6.908549536994359 -0.03276536527984868 46.377056500970404 0.0008720653769407216 -4.301619274235759 -14.740065074385999 -3.794565495872573 -0.011421263425263251 0.022082671465964168 -0.005200766504066443 0.04039917619560819 -10.738436663972026 0.014904755942201304 
